<mxfile host="app.diagrams.net" agent="Mozilla/5.0 (Macintosh; Intel Mac OS X 10_15_7) AppleWebKit/537.36 (KHTML, like Gecko) Chrome/133.0.0.0 Safari/537.36" version="26.0.16">
  <diagram name="Page-1" id="i_hpxaci8igXSB5S2QFw">
    <mxGraphModel dx="628" dy="414" grid="1" gridSize="10" guides="1" tooltips="1" connect="1" arrows="1" fold="1" page="1" pageScale="1" pageWidth="827" pageHeight="1169" math="0" shadow="0">
      <root>
        <mxCell id="0" />
        <mxCell id="1" parent="0" />
        <mxCell id="jr_RJ6xMsSqT02v367Tx-1" value="&lt;table&gt;&lt;tbody&gt;&lt;tr&gt;&lt;th data-end=&quot;300&quot; data-start=&quot;261&quot;&gt;&lt;strong data-end=&quot;299&quot; data-start=&quot;263&quot;&gt;Execution (Mobilizing Resources)&lt;/strong&gt;&lt;/th&gt;&lt;/tr&gt;&lt;/tbody&gt;&lt;/table&gt;&lt;table&gt;&lt;tbody&gt;&lt;tr&gt;&lt;th data-end=&quot;354&quot; data-start=&quot;300&quot;&gt;&lt;/th&gt;&lt;/tr&gt;&lt;/tbody&gt;&lt;/table&gt;" style="rounded=0;whiteSpace=wrap;html=1;" vertex="1" parent="1">
          <mxGeometry x="220" y="190" width="120" height="100" as="geometry" />
        </mxCell>
        <mxCell id="jr_RJ6xMsSqT02v367Tx-2" value="&lt;table&gt;&lt;tbody&gt;&lt;tr&gt;&lt;th data-end=&quot;354&quot; data-start=&quot;300&quot;&gt;&lt;strong data-end=&quot;353&quot; data-start=&quot;302&quot;&gt;Monitoring &amp;amp; Controlling (Tracking &amp;amp; Reporting)&lt;/strong&gt;&lt;/th&gt;&lt;/tr&gt;&lt;/tbody&gt;&lt;/table&gt;&lt;table&gt;&lt;tbody&gt;&lt;tr&gt;&lt;th data-end=&quot;394&quot; data-start=&quot;354&quot;&gt;&lt;/th&gt;&lt;/tr&gt;&lt;/tbody&gt;&lt;/table&gt;" style="rounded=0;whiteSpace=wrap;html=1;" vertex="1" parent="1">
          <mxGeometry x="340" y="190" width="120" height="100" as="geometry" />
        </mxCell>
        <mxCell id="jr_RJ6xMsSqT02v367Tx-3" value="&lt;table&gt;&lt;tbody&gt;&lt;tr&gt;&lt;th data-end=&quot;394&quot; data-start=&quot;354&quot;&gt;&lt;strong data-end=&quot;393&quot; data-start=&quot;356&quot;&gt;Closing (Finalizing &amp;amp; Acceptance)&lt;/strong&gt;&lt;/th&gt;&lt;/tr&gt;&lt;/tbody&gt;&lt;/table&gt;&lt;table&gt;&lt;tbody&gt;&lt;tr&gt;&lt;th data-end=&quot;443&quot; data-start=&quot;394&quot;&gt;&lt;/th&gt;&lt;/tr&gt;&lt;/tbody&gt;&lt;/table&gt;" style="rounded=0;whiteSpace=wrap;html=1;" vertex="1" parent="1">
          <mxGeometry x="460" y="190" width="120" height="100" as="geometry" />
        </mxCell>
        <mxCell id="jr_RJ6xMsSqT02v367Tx-4" value="&lt;table&gt;&lt;thead data-end=&quot;443&quot; data-start=&quot;228&quot;&gt;&lt;tr data-end=&quot;443&quot; data-start=&quot;228&quot;&gt;&lt;th data-end=&quot;443&quot; data-start=&quot;394&quot;&gt;&lt;strong data-end=&quot;441&quot; data-start=&quot;396&quot;&gt;Managing Change (Final Approvals &amp;amp; Adjustments)&lt;/strong&gt;&lt;/th&gt;&lt;/tr&gt;&lt;/thead&gt;&lt;/table&gt;&lt;table&gt;&lt;tbody&gt;&lt;tr data-end=&quot;925&quot; data-start=&quot;652&quot;&gt;&lt;td&gt;&lt;/td&gt;&lt;/tr&gt;&lt;/tbody&gt;&lt;/table&gt;" style="rounded=0;whiteSpace=wrap;html=1;" vertex="1" parent="1">
          <mxGeometry x="580" y="190" width="120" height="100" as="geometry" />
        </mxCell>
        <mxCell id="jr_RJ6xMsSqT02v367Tx-6" value="" style="rounded=0;whiteSpace=wrap;html=1;" vertex="1" parent="1">
          <mxGeometry x="220" y="270" width="480" height="80" as="geometry" />
        </mxCell>
        <mxCell id="jr_RJ6xMsSqT02v367Tx-8" value="" style="rounded=0;whiteSpace=wrap;html=1;" vertex="1" parent="1">
          <mxGeometry x="220" y="340" width="480" height="70" as="geometry" />
        </mxCell>
        <mxCell id="jr_RJ6xMsSqT02v367Tx-9" value="" style="rounded=0;whiteSpace=wrap;html=1;" vertex="1" parent="1">
          <mxGeometry x="220" y="410" width="480" height="70" as="geometry" />
        </mxCell>
        <mxCell id="jr_RJ6xMsSqT02v367Tx-10" value="&lt;table&gt;&lt;tbody&gt;&lt;tr&gt;&lt;td&gt;&lt;strong data-end=&quot;670&quot; data-start=&quot;654&quot;&gt;Project Team&lt;/strong&gt;&lt;/td&gt;&lt;/tr&gt;&lt;/tbody&gt;&lt;/table&gt;&lt;table&gt;&lt;tbody&gt;&lt;tr&gt;&lt;td&gt;&lt;/td&gt;&lt;/tr&gt;&lt;/tbody&gt;&lt;/table&gt;" style="rounded=0;whiteSpace=wrap;html=1;" vertex="1" parent="1">
          <mxGeometry x="110" y="270" width="110" height="70" as="geometry" />
        </mxCell>
        <mxCell id="jr_RJ6xMsSqT02v367Tx-11" value="&lt;table&gt;&lt;tbody&gt;&lt;tr&gt;&lt;td&gt;&lt;strong data-end=&quot;947&quot; data-start=&quot;928&quot;&gt;Project Manager&lt;/strong&gt;&lt;/td&gt;&lt;/tr&gt;&lt;/tbody&gt;&lt;/table&gt;&lt;table&gt;&lt;tbody&gt;&lt;tr&gt;&lt;td&gt;&lt;/td&gt;&lt;/tr&gt;&lt;/tbody&gt;&lt;/table&gt;" style="rounded=0;whiteSpace=wrap;html=1;" vertex="1" parent="1">
          <mxGeometry x="110" y="340" width="110" height="70" as="geometry" />
        </mxCell>
        <mxCell id="jr_RJ6xMsSqT02v367Tx-12" value="&lt;table&gt;&lt;tbody&gt;&lt;tr&gt;&lt;td&gt;&lt;strong data-end=&quot;1261&quot; data-start=&quot;1208&quot;&gt;&lt;font style=&quot;font-size: 12px;&quot;&gt;Stakeholders (MOH, Hospitals, Board of Directors)&lt;/font&gt;&lt;/strong&gt;&lt;/td&gt;&lt;/tr&gt;&lt;/tbody&gt;&lt;/table&gt;&lt;table&gt;&lt;tbody&gt;&lt;tr&gt;&lt;td&gt;&lt;/td&gt;&lt;/tr&gt;&lt;/tbody&gt;&lt;/table&gt;" style="rounded=0;whiteSpace=wrap;html=1;" vertex="1" parent="1">
          <mxGeometry x="110" y="410" width="110" height="70" as="geometry" />
        </mxCell>
        <mxCell id="jr_RJ6xMsSqT02v367Tx-13" value="&lt;font style=&quot;font-size: 8px;&quot;&gt;Develops MealMate app, AI model, integrates with hospital system&lt;/font&gt;" style="rounded=1;whiteSpace=wrap;html=1;" vertex="1" parent="1">
          <mxGeometry x="232.5" y="280" width="95" height="45" as="geometry" />
        </mxCell>
        <mxCell id="jr_RJ6xMsSqT02v367Tx-14" value="&lt;table&gt;&lt;tbody&gt;&lt;tr&gt;&lt;td&gt;&lt;font style=&quot;font-size: 8px;&quot;&gt;Reports weekly progress, updates app features, fixes issues&lt;/font&gt;&lt;/td&gt;&lt;/tr&gt;&lt;/tbody&gt;&lt;/table&gt;&lt;table&gt;&lt;tbody&gt;&lt;tr&gt;&lt;td&gt;&lt;/td&gt;&lt;/tr&gt;&lt;/tbody&gt;&lt;/table&gt;" style="rounded=1;whiteSpace=wrap;html=1;" vertex="1" parent="1">
          <mxGeometry x="350.01" y="282.5" width="96.25" height="42.5" as="geometry" />
        </mxCell>
        <mxCell id="jr_RJ6xMsSqT02v367Tx-15" value="&lt;font style=&quot;font-size: 8px;&quot;&gt;Conducts final testing, ensures all requirements are met&lt;/font&gt;" style="rounded=1;whiteSpace=wrap;html=1;" vertex="1" parent="1">
          <mxGeometry x="470" y="283" width="100" height="42.5" as="geometry" />
        </mxCell>
        <mxCell id="jr_RJ6xMsSqT02v367Tx-16" value="&lt;font style=&quot;font-size: 8px;&quot;&gt;Identifies issues requiring timeline adjustments&lt;/font&gt;" style="rounded=1;whiteSpace=wrap;html=1;" vertex="1" parent="1">
          <mxGeometry x="590" y="283" width="100" height="42" as="geometry" />
        </mxCell>
        <mxCell id="jr_RJ6xMsSqT02v367Tx-17" value="&lt;table&gt;&lt;tbody&gt;&lt;tr&gt;&lt;td&gt;&lt;font style=&quot;font-size: 8px;&quot;&gt;Tracks execution, assigns tasks, ensures resources are allocated&lt;/font&gt;&lt;/td&gt;&lt;/tr&gt;&lt;/tbody&gt;&lt;/table&gt;&lt;table&gt;&lt;tbody&gt;&lt;tr&gt;&lt;td&gt;&lt;/td&gt;&lt;/tr&gt;&lt;/tbody&gt;&lt;/table&gt;" style="rounded=1;whiteSpace=wrap;html=1;" vertex="1" parent="1">
          <mxGeometry x="226.5" y="355" width="107" height="50" as="geometry" />
        </mxCell>
        <mxCell id="jr_RJ6xMsSqT02v367Tx-18" value="&lt;table&gt;&lt;tbody&gt;&lt;tr&gt;&lt;td&gt;&lt;font style=&quot;font-size: 8px;&quot;&gt;Compares actual vs. planned progress, prepares performance reports&lt;/font&gt;&lt;/td&gt;&lt;/tr&gt;&lt;/tbody&gt;&lt;/table&gt;&lt;table&gt;&lt;tbody&gt;&lt;tr&gt;&lt;td&gt;&lt;/td&gt;&lt;/tr&gt;&lt;/tbody&gt;&lt;/table&gt;" style="rounded=1;whiteSpace=wrap;html=1;" vertex="1" parent="1">
          <mxGeometry x="343.13" y="355" width="110" height="50" as="geometry" />
        </mxCell>
        <mxCell id="jr_RJ6xMsSqT02v367Tx-19" value="&lt;table&gt;&lt;tbody&gt;&lt;tr&gt;&lt;td&gt;&lt;font style=&quot;font-size: 8px;&quot;&gt;Verifies all deliverables, submits for approval&lt;/font&gt;&lt;/td&gt;&lt;/tr&gt;&lt;/tbody&gt;&lt;/table&gt;&lt;table&gt;&lt;tbody&gt;&lt;tr&gt;&lt;td&gt;&lt;/td&gt;&lt;/tr&gt;&lt;/tbody&gt;&lt;/table&gt;" style="rounded=1;whiteSpace=wrap;html=1;" vertex="1" parent="1">
          <mxGeometry x="470" y="360" width="100" height="40" as="geometry" />
        </mxCell>
        <mxCell id="jr_RJ6xMsSqT02v367Tx-20" value="&lt;table&gt;&lt;tbody&gt;&lt;tr data-end=&quot;1205&quot; data-start=&quot;926&quot;&gt;&lt;td&gt;&lt;font style=&quot;font-size: 8px;&quot;&gt;Receive change requests, updates Gantt chart accordingly&lt;/font&gt;&lt;/td&gt;&lt;/tr&gt;&lt;/tbody&gt;&lt;/table&gt;&lt;table&gt;&lt;tbody&gt;&lt;tr data-end=&quot;1486&quot; data-start=&quot;1206&quot;&gt;&lt;td&gt;&lt;/td&gt;&lt;/tr&gt;&lt;/tbody&gt;&lt;/table&gt;" style="rounded=1;whiteSpace=wrap;html=1;" vertex="1" parent="1">
          <mxGeometry x="585" y="355" width="110" height="50" as="geometry" />
        </mxCell>
        <mxCell id="jr_RJ6xMsSqT02v367Tx-21" value="&lt;table&gt;&lt;tbody&gt;&lt;tr&gt;&lt;td&gt;&lt;font style=&quot;font-size: 8px;&quot;&gt;Reviews project execution updates, provides initial feedback&lt;/font&gt;&lt;/td&gt;&lt;/tr&gt;&lt;/tbody&gt;&lt;/table&gt;&lt;table&gt;&lt;tbody&gt;&lt;tr&gt;&lt;td&gt;&lt;/td&gt;&lt;/tr&gt;&lt;/tbody&gt;&lt;/table&gt;" style="rounded=1;whiteSpace=wrap;html=1;" vertex="1" parent="1">
          <mxGeometry x="231.25" y="420" width="97.5" height="50" as="geometry" />
        </mxCell>
        <mxCell id="jr_RJ6xMsSqT02v367Tx-22" value="&lt;table&gt;&lt;tbody&gt;&lt;tr&gt;&lt;td&gt;&lt;font style=&quot;font-size: 8px;&quot;&gt;Evaluates reports, requests improvements if necessary&lt;/font&gt;&lt;/td&gt;&lt;/tr&gt;&lt;/tbody&gt;&lt;/table&gt;&lt;table&gt;&lt;tbody&gt;&lt;tr&gt;&lt;td&gt;&lt;/td&gt;&lt;/tr&gt;&lt;/tbody&gt;&lt;/table&gt;" style="rounded=1;whiteSpace=wrap;html=1;" vertex="1" parent="1">
          <mxGeometry x="348.13" y="420" width="100" height="50" as="geometry" />
        </mxCell>
        <mxCell id="jr_RJ6xMsSqT02v367Tx-23" value="&lt;table&gt;&lt;tbody&gt;&lt;tr&gt;&lt;td&gt;&lt;font style=&quot;font-size: 8px;&quot;&gt;Approves final version, gives go-live authorization&lt;/font&gt;&lt;/td&gt;&lt;/tr&gt;&lt;/tbody&gt;&lt;/table&gt;&lt;table&gt;&lt;tbody&gt;&lt;tr&gt;&lt;td&gt;&lt;/td&gt;&lt;/tr&gt;&lt;/tbody&gt;&lt;/table&gt;" style="rounded=1;whiteSpace=wrap;html=1;" vertex="1" parent="1">
          <mxGeometry x="470" y="420" width="100" height="50" as="geometry" />
        </mxCell>
        <mxCell id="jr_RJ6xMsSqT02v367Tx-24" value="&lt;table style=&quot;&quot; data-end=&quot;1486&quot; data-start=&quot;228&quot;&gt;&lt;tbody data-end=&quot;1486&quot; data-start=&quot;652&quot;&gt;&lt;tr data-end=&quot;1486&quot; data-start=&quot;1206&quot;&gt;&lt;td&gt;&lt;font style=&quot;font-size: 8px;&quot;&gt;Approves/rejects changes, updates project scope&lt;/font&gt;&lt;/td&gt;&lt;/tr&gt;&lt;/tbody&gt;&lt;/table&gt;&lt;p data-end=&quot;1645&quot; data-start=&quot;1488&quot;&gt;&lt;/p&gt;" style="rounded=1;whiteSpace=wrap;html=1;align=center;" vertex="1" parent="1">
          <mxGeometry x="585" y="420" width="110" height="50" as="geometry" />
        </mxCell>
        <mxCell id="jr_RJ6xMsSqT02v367Tx-25" value="" style="endArrow=classic;html=1;rounded=0;exitX=0.5;exitY=0;exitDx=0;exitDy=0;entryX=0.5;entryY=1;entryDx=0;entryDy=0;" edge="1" parent="1" source="jr_RJ6xMsSqT02v367Tx-17" target="jr_RJ6xMsSqT02v367Tx-13">
          <mxGeometry width="50" height="50" relative="1" as="geometry">
            <mxPoint x="280" y="360" as="sourcePoint" />
            <mxPoint x="330" y="310" as="targetPoint" />
          </mxGeometry>
        </mxCell>
        <mxCell id="jr_RJ6xMsSqT02v367Tx-26" value="" style="endArrow=classic;html=1;rounded=0;exitX=1;exitY=0.5;exitDx=0;exitDy=0;entryX=0;entryY=0.5;entryDx=0;entryDy=0;" edge="1" parent="1" source="jr_RJ6xMsSqT02v367Tx-13" target="jr_RJ6xMsSqT02v367Tx-14">
          <mxGeometry width="50" height="50" relative="1" as="geometry">
            <mxPoint x="330" y="320" as="sourcePoint" />
            <mxPoint x="380" y="270" as="targetPoint" />
          </mxGeometry>
        </mxCell>
        <mxCell id="jr_RJ6xMsSqT02v367Tx-29" value="" style="endArrow=classic;html=1;rounded=0;entryX=0.5;entryY=0;entryDx=0;entryDy=0;exitX=0.5;exitY=1;exitDx=0;exitDy=0;" edge="1" parent="1" source="jr_RJ6xMsSqT02v367Tx-14" target="jr_RJ6xMsSqT02v367Tx-18">
          <mxGeometry width="50" height="50" relative="1" as="geometry">
            <mxPoint x="310" y="390" as="sourcePoint" />
            <mxPoint x="360" y="340" as="targetPoint" />
          </mxGeometry>
        </mxCell>
        <mxCell id="jr_RJ6xMsSqT02v367Tx-30" value="" style="endArrow=classic;html=1;rounded=0;exitX=0.5;exitY=1;exitDx=0;exitDy=0;entryX=0.5;entryY=0;entryDx=0;entryDy=0;" edge="1" parent="1" source="jr_RJ6xMsSqT02v367Tx-17" target="jr_RJ6xMsSqT02v367Tx-21">
          <mxGeometry width="50" height="50" relative="1" as="geometry">
            <mxPoint x="260" y="470" as="sourcePoint" />
            <mxPoint x="310" y="420" as="targetPoint" />
          </mxGeometry>
        </mxCell>
        <mxCell id="jr_RJ6xMsSqT02v367Tx-31" value="" style="endArrow=classic;html=1;rounded=0;exitX=1;exitY=0.5;exitDx=0;exitDy=0;entryX=0;entryY=0.5;entryDx=0;entryDy=0;" edge="1" parent="1" source="jr_RJ6xMsSqT02v367Tx-14" target="jr_RJ6xMsSqT02v367Tx-15">
          <mxGeometry width="50" height="50" relative="1" as="geometry">
            <mxPoint x="460" y="340" as="sourcePoint" />
            <mxPoint x="510" y="290" as="targetPoint" />
          </mxGeometry>
        </mxCell>
        <mxCell id="jr_RJ6xMsSqT02v367Tx-32" value="" style="endArrow=classic;html=1;rounded=0;exitX=0.5;exitY=1;exitDx=0;exitDy=0;entryX=0.5;entryY=0;entryDx=0;entryDy=0;" edge="1" parent="1" source="jr_RJ6xMsSqT02v367Tx-15" target="jr_RJ6xMsSqT02v367Tx-19">
          <mxGeometry width="50" height="50" relative="1" as="geometry">
            <mxPoint x="480" y="360" as="sourcePoint" />
            <mxPoint x="530" y="310" as="targetPoint" />
          </mxGeometry>
        </mxCell>
        <mxCell id="jr_RJ6xMsSqT02v367Tx-35" value="" style="endArrow=classic;html=1;rounded=0;exitX=0.927;exitY=1.011;exitDx=0;exitDy=0;exitPerimeter=0;entryX=0;entryY=0.25;entryDx=0;entryDy=0;" edge="1" parent="1" source="jr_RJ6xMsSqT02v367Tx-19" target="jr_RJ6xMsSqT02v367Tx-24">
          <mxGeometry width="50" height="50" relative="1" as="geometry">
            <mxPoint x="570" y="400" as="sourcePoint" />
            <mxPoint x="620" y="350" as="targetPoint" />
          </mxGeometry>
        </mxCell>
        <mxCell id="jr_RJ6xMsSqT02v367Tx-38" value="" style="endArrow=classic;html=1;rounded=0;exitX=0;exitY=0.5;exitDx=0;exitDy=0;entryX=1;entryY=0.5;entryDx=0;entryDy=0;" edge="1" parent="1" source="jr_RJ6xMsSqT02v367Tx-24" target="jr_RJ6xMsSqT02v367Tx-23">
          <mxGeometry width="50" height="50" relative="1" as="geometry">
            <mxPoint x="580" y="450" as="sourcePoint" />
            <mxPoint x="630" y="400" as="targetPoint" />
          </mxGeometry>
        </mxCell>
        <mxCell id="jr_RJ6xMsSqT02v367Tx-39" value="" style="endArrow=classic;html=1;rounded=0;exitX=0.986;exitY=0.062;exitDx=0;exitDy=0;entryX=0.004;entryY=0.08;entryDx=0;entryDy=0;entryPerimeter=0;exitPerimeter=0;dashed=1;" edge="1" parent="1" source="jr_RJ6xMsSqT02v367Tx-14" target="jr_RJ6xMsSqT02v367Tx-16">
          <mxGeometry width="50" height="50" relative="1" as="geometry">
            <mxPoint x="400" y="330" as="sourcePoint" />
            <mxPoint x="450" y="280" as="targetPoint" />
            <Array as="points">
              <mxPoint x="460" y="280" />
              <mxPoint x="530" y="280" />
              <mxPoint x="580" y="280" />
            </Array>
          </mxGeometry>
        </mxCell>
        <mxCell id="jr_RJ6xMsSqT02v367Tx-40" value="" style="endArrow=classic;html=1;rounded=0;exitX=1;exitY=0.5;exitDx=0;exitDy=0;entryX=0;entryY=0.5;entryDx=0;entryDy=0;dashed=1;" edge="1" parent="1" source="jr_RJ6xMsSqT02v367Tx-15" target="jr_RJ6xMsSqT02v367Tx-16">
          <mxGeometry width="50" height="50" relative="1" as="geometry">
            <mxPoint x="580" y="350" as="sourcePoint" />
            <mxPoint x="630" y="300" as="targetPoint" />
          </mxGeometry>
        </mxCell>
        <mxCell id="jr_RJ6xMsSqT02v367Tx-41" value="" style="endArrow=classic;html=1;rounded=0;exitX=0.5;exitY=0;exitDx=0;exitDy=0;entryX=0.5;entryY=1;entryDx=0;entryDy=0;dashed=1;" edge="1" parent="1" source="jr_RJ6xMsSqT02v367Tx-24" target="jr_RJ6xMsSqT02v367Tx-20">
          <mxGeometry width="50" height="50" relative="1" as="geometry">
            <mxPoint x="640" y="460" as="sourcePoint" />
            <mxPoint x="690" y="410" as="targetPoint" />
          </mxGeometry>
        </mxCell>
        <mxCell id="jr_RJ6xMsSqT02v367Tx-42" value="" style="endArrow=classic;html=1;rounded=0;exitX=0.024;exitY=0.045;exitDx=0;exitDy=0;entryX=0.97;entryY=0.039;entryDx=0;entryDy=0;entryPerimeter=0;exitPerimeter=0;dashed=1;" edge="1" parent="1" source="jr_RJ6xMsSqT02v367Tx-20" target="jr_RJ6xMsSqT02v367Tx-17">
          <mxGeometry width="50" height="50" relative="1" as="geometry">
            <mxPoint x="600" y="360" as="sourcePoint" />
            <mxPoint x="650" y="310" as="targetPoint" />
            <Array as="points">
              <mxPoint x="570" y="350" />
              <mxPoint x="360" y="350" />
            </Array>
          </mxGeometry>
        </mxCell>
        <mxCell id="jr_RJ6xMsSqT02v367Tx-43" value="" style="endArrow=classic;html=1;rounded=0;exitX=0.5;exitY=1;exitDx=0;exitDy=0;entryX=0.5;entryY=0;entryDx=0;entryDy=0;" edge="1" parent="1" source="jr_RJ6xMsSqT02v367Tx-18" target="jr_RJ6xMsSqT02v367Tx-22">
          <mxGeometry width="50" height="50" relative="1" as="geometry">
            <mxPoint x="410" y="410" as="sourcePoint" />
            <mxPoint x="460" y="360" as="targetPoint" />
          </mxGeometry>
        </mxCell>
        <mxCell id="jr_RJ6xMsSqT02v367Tx-44" value="" style="endArrow=classic;html=1;rounded=0;exitX=0.119;exitY=-0.004;exitDx=0;exitDy=0;exitPerimeter=0;entryX=0.995;entryY=0.916;entryDx=0;entryDy=0;entryPerimeter=0;dashed=1;" edge="1" parent="1" source="jr_RJ6xMsSqT02v367Tx-22" target="jr_RJ6xMsSqT02v367Tx-17">
          <mxGeometry width="50" height="50" relative="1" as="geometry">
            <mxPoint x="350" y="420" as="sourcePoint" />
            <mxPoint x="400" y="370" as="targetPoint" />
          </mxGeometry>
        </mxCell>
        <mxCell id="jr_RJ6xMsSqT02v367Tx-45" value="" style="endArrow=classic;html=1;rounded=0;exitX=0.226;exitY=-0.006;exitDx=0;exitDy=0;entryX=0.25;entryY=1;entryDx=0;entryDy=0;exitPerimeter=0;dashed=1;" edge="1" parent="1" source="jr_RJ6xMsSqT02v367Tx-21" target="jr_RJ6xMsSqT02v367Tx-17">
          <mxGeometry width="50" height="50" relative="1" as="geometry">
            <mxPoint x="240" y="430" as="sourcePoint" />
            <mxPoint x="290" y="380" as="targetPoint" />
          </mxGeometry>
        </mxCell>
      </root>
    </mxGraphModel>
  </diagram>
</mxfile>
